<?xml version="1.0" standalone="no"?>
<!DOCTYPE svg PUBLIC "-//W3C//DTD SVG 20010904//EN"
 "http://www.w3.org/TR/2001/REC-SVG-20010904/DTD/svg10.dtd">
<svg version="1.0" xmlns="http://www.w3.org/2000/svg"
 width="64.000000pt" height="64.000000pt" viewBox="0 0 64.000000 64.000000"
 preserveAspectRatio="xMidYMid meet">
<metadata>
Created by potrace 1.15, written by Peter Selinger 2001-2017
</metadata>
<g transform="translate(0.000000,64.000000) scale(0.100000,-0.100000)"
fill="#000000" stroke="none">
<path d="M147 491 c-85 -85 -146 -154 -143 -160 4 -6 40 -11 87 -11 l79 0 0
-129 c0 -125 1 -131 26 -160 26 -31 27 -31 124 -31 97 0 98 0 124 31 25 29 26
35 26 160 l0 129 79 0 c47 0 83 5 87 11 3 6 -58 75 -143 160 -110 110 -155
149 -173 149 -18 0 -63 -39 -173 -149z"/>
</g>
</svg>
